# xmcd
#
# Track frame offsets:
#	150
#	17249
#	37206
#	56747
#	75577
#	94120
#	111894
#	126891
#	143196
#	160485
#	163089
#	178235
#	194281
#	208509
#
# Disc length: 2990 seconds
#
# Revision: 15
# Processed by: cddbd v1.5.2PL0 Copyright (c) Steve Scherf et al.
# Submitted via: Jack! The Knife 20 Magnifico
#
DISCID=cb0bac0e
DTITLE=Ligabue - Miss Mondo
DYEAR=1999
DGENRE=Rock
TTITLE0=Si Viene E Si Va
TTITLE1=Uno Dei Tanti
TTITLE2=Almeno Credo
TTITLE3=E
TTITLE4=Baby, E' Un Mondo Super
TTITLE5=Una Vita Da Mediano
TTITLE6=Da Adesso In Poi
TTITLE7=L'odore Del Sesso
TTITLE8=Kay E' Stata Qui
TTITLE9=Qualcuno  Ha Visto, Per Caso, Il Mio Cane Blu Elettrico Monofase?
TTITLE10=Sulla Mia Strada
TTITLE11=Forse Mi Trovo
TTITLE12=Miss Mondo '99
TTITLE13=La Porta Dei Sogni
EXTD=Luciano Ligabue
EXTT0=Luciano Ligabue
EXTT1=Luciano Ligabue
EXTT2=Luciano Ligabue
EXTT3=Luciano Ligabue
EXTT4=Luciano Ligabue
EXTT5=Luciano Ligabue
EXTT6=Luciano Ligabue
EXTT7=Luciano Ligabue
EXTT8=Luciano Ligabue
EXTT9=Luciano Ligabue
EXTT10=Luciano Ligabue
EXTT11=Luciano Ligabue
EXTT12=Luciano Ligabue
EXTT13=Luciano Ligabue
PLAYORDER=
